<?xml version="1.0" standalone="no"?>
<!DOCTYPE svg PUBLIC "-//W3C//DTD SVG 20010904//EN"
 "http://www.w3.org/TR/2001/REC-SVG-20010904/DTD/svg10.dtd">
<svg version="1.0" xmlns="http://www.w3.org/2000/svg"
 width="206.000000pt" height="206.000000pt" viewBox="0 0 206.000000 206.000000"
 preserveAspectRatio="xMidYMid meet">
<metadata>
Created by potrace 1.11, written by Peter Selinger 2001-2013
</metadata>
<g transform="translate(0.000000,206.000000) scale(0.100000,-0.100000)"
fill="#000000" stroke="none">
<path d="M849 1964 c-192 -34 -361 -124 -505 -268 -105 -105 -178 -218 -224
-343 -130 -359 -45 -739 224 -1009 270 -269 650 -354 1009 -224 251 91 476
316 567 567 101 280 71 583 -82 834 -68 111 -206 249 -317 317 -198 121 -445
168 -672 126z m9 -560 c21 -15 25 -15 41 0 25 22 52 20 94 -8 33 -22 45 -24
149 -23 149 1 185 -7 260 -56 72 -47 109 -50 148 -12 39 37 75 33 99 -12 9
-18 9 -29 -4 -53 -18 -35 -48 -39 -94 -13 -24 14 -33 15 -42 6 -10 -10 -10
-18 0 -36 9 -16 11 -51 7 -113 -3 -49 -9 -154 -13 -234 -4 -80 -12 -151 -17
-159 -13 -21 -71 -41 -117 -41 -23 0 -77 12 -120 26 -86 28 -86 29 -91 114 -3
39 -6 45 -26 48 -23 4 -24 3 -17 -60 6 -55 4 -66 -14 -89 -41 -52 -168 -63
-224 -18 -14 10 -34 19 -45 19 -39 0 -47 26 -45 143 3 118 -3 137 -43 137 -38
0 -51 -35 -57 -153 -6 -125 -17 -147 -75 -147 -72 0 -72 1 -72 300 l0 266 29
45 c29 47 57 63 124 73 25 3 48 15 66 35 32 35 65 39 99 15z"/>
</g>
</svg>
